<svg version="1.1" id="Layer_1" xmlns="http://www.w3.org/2000/svg" xmlns:xlink="http://www.w3.org/1999/xlink" x="0px" y="0px"
	 width="100%" viewBox="0 0 471 191" enable-background="new 0 0 471 191" xml:space="preserve">
<path fill="#FEFFFF" opacity="1.000000" stroke="none" 
	d="
M321.000000,192.000000 
	C214.000015,192.000000 107.500038,192.000000 1.000043,192.000000 
	C1.000029,128.333359 1.000029,64.666725 1.000014,1.000068 
	C157.999939,1.000046 314.999878,1.000046 471.999878,1.000023 
	C471.999908,64.666595 471.999908,128.333191 471.999939,191.999893 
	C421.833344,192.000000 371.666656,192.000000 321.000000,192.000000 
M219.331070,94.447578 
	C216.622437,91.254005 213.913818,88.060440 211.050110,84.684036 
	C216.672195,79.688896 219.671066,73.361488 216.113251,65.533707 
	C212.312988,57.172497 205.464142,53.708549 196.407715,53.958904 
	C189.760056,54.142666 183.102478,54.053574 176.450912,53.966217 
	C174.039948,53.934547 172.758804,54.546810 172.768021,57.293201 
	C172.835587,77.417480 172.754227,97.542564 172.940475,117.665352 
	C172.950714,118.771233 174.905518,120.782219 175.993881,120.809166 
	C184.800690,121.027260 193.660233,121.411690 202.420166,120.707047 
	C216.782990,119.551712 224.027100,108.418175 219.331070,94.447578 
M127.084396,116.398094 
	C132.236435,120.879944 137.379959,125.371620 142.545212,129.838196 
	C144.302170,131.357498 146.366791,133.552567 148.315720,130.807556 
	C148.917618,129.959808 147.564178,126.852821 146.282303,125.682396 
	C138.904953,118.946396 131.183945,112.586342 123.820923,105.835457 
	C122.351158,104.487869 121.219528,102.024300 121.146782,100.030998 
	C120.849312,91.879555 120.884361,83.707573 121.083420,75.550140 
	C121.176544,71.733765 119.868965,69.957634 115.951073,70.081215 
	C111.790764,70.212440 107.621292,70.188614 103.459267,70.089043 
	C99.918533,70.004333 98.174644,71.462418 98.349915,75.126755 
	C98.470459,77.646980 98.373024,80.177635 98.373024,83.774223 
	C93.184776,79.296532 88.997139,75.785629 84.934784,72.135307 
	C82.717003,70.142464 80.814590,69.887947 78.431145,71.969742 
	C57.733582,90.047821 36.950191,108.027878 16.320156,126.182343 
	C15.231638,127.140244 15.297375,129.409805 14.825758,131.068726 
	C16.561722,130.829712 18.775608,131.189041 19.951956,130.249435 
	C25.412638,125.887741 30.583176,121.163071 35.862247,116.573708 
	C51.049141,103.370987 66.238289,90.170860 81.575188,76.840523 
	C87.318542,81.818405 92.795738,86.675125 98.427612,91.345306 
	C99.434662,92.180412 101.377289,92.906563 102.348824,92.473511 
	C103.287575,92.055084 103.936935,90.095108 104.002960,88.776711 
	C104.208916,84.664177 104.078506,80.534790 104.078506,76.203957 
	C107.966026,76.203957 111.364639,76.203957 115.237259,76.203957 
	C115.237259,81.243164 115.779640,86.106583 115.128281,90.804474 
	C113.609543,101.758293 116.731651,110.284454 127.084396,116.398094 
M248.264450,120.902405 
	C251.169998,119.784233 254.075531,118.666061 256.981079,117.547890 
	C256.855896,117.914658 256.730713,118.281418 256.605530,118.648186 
	C259.484467,119.601196 262.363403,120.554207 265.320129,121.532967 
	C265.320129,110.663460 265.747223,101.046432 265.179535,91.488480 
	C264.755981,84.356491 260.480072,80.007858 253.333267,79.590263 
	C247.835449,79.269012 242.087906,80.159988 236.715698,81.540451 
	C230.269669,83.196846 230.053940,85.450134 234.609116,90.356575 
	C239.507553,89.244514 244.135498,87.873924 248.862686,87.208252 
	C253.858078,86.504829 255.877975,88.506805 256.001404,93.479332 
	C253.948120,93.935730 251.801422,94.229141 249.779068,94.898376 
	C244.612885,96.607948 239.222000,97.950294 234.450409,100.450096 
	C229.954910,102.805260 228.354553,107.464020 229.562805,112.495872 
	C230.779770,117.563972 234.374191,120.381218 239.490799,120.959045 
	C242.114136,121.255302 244.798904,121.007339 248.264450,120.902405 
M442.928925,118.238922 
	C442.665588,110.091263 442.315887,101.945213 442.163177,93.795479 
	C442.009949,85.616676 437.948822,80.127556 429.871582,79.547607 
	C424.542572,79.164963 418.937195,80.098213 413.711853,81.440277 
	C407.040100,83.153831 406.846863,84.831863 411.225372,90.378304 
	C416.173157,89.265877 420.951477,87.830589 425.833923,87.193970 
	C430.851685,86.539703 432.929443,88.790710 432.646576,92.685181 
	C425.348297,95.244537 418.131653,97.236839 411.413666,100.316811 
	C406.788605,102.437271 404.894043,108.253929 406.292053,112.763321 
	C407.820892,117.694756 411.368530,120.984955 416.498016,120.880371 
	C422.287811,120.762329 428.054321,119.500359 434.603729,118.633614 
	C436.832489,121.760864 439.451904,122.268539 442.928925,118.238922 
M305.262085,104.876732 
	C309.216064,96.742874 313.170044,88.609016 317.173401,80.373520 
	C309.102753,78.222183 307.957855,78.716995 304.965881,85.095627 
	C301.893799,91.644951 298.794586,98.181534 295.412476,105.348297 
	C291.795319,98.021873 288.491669,91.337723 285.194672,84.650299 
	C282.304871,78.788849 279.924011,77.942390 273.123840,80.577393 
	C278.166534,90.327629 282.994293,100.164192 288.326569,109.719185 
	C290.388519,113.414017 290.439178,116.365891 288.169525,119.769043 
	C283.492676,126.781601 278.957703,133.888779 274.325562,141.016739 
	C278.975983,147.721161 280.476288,148.182327 284.631653,141.486359 
	C291.881317,129.804291 298.240234,117.569427 305.262085,104.876732 
M381.695618,87.608482 
	C386.427307,88.475220 388.372345,91.577240 388.406921,96.114510 
	C388.451263,101.935173 388.412689,107.756424 388.421387,113.577415 
	C388.432312,120.897736 389.800262,121.911835 397.564362,120.318085 
	C397.564362,111.069260 398.067169,101.768776 397.392639,92.554497 
	C396.920593,86.106468 392.569672,81.834068 386.220734,79.909546 
	C379.517242,77.877541 373.424500,79.309265 367.602570,83.367203 
	C367.179901,82.650803 366.984283,81.816711 366.541412,81.653526 
	C364.349609,80.845924 362.104675,79.847984 359.850037,79.773125 
	C359.263275,79.753639 358.044006,82.801575 358.018402,84.454613 
	C357.851196,95.262459 358.050171,106.076180 357.863525,116.883392 
	C357.804047,120.330063 359.183014,121.065559 362.285919,121.051720 
	C365.446747,121.037605 367.261078,120.580826 367.089081,116.736275 
	C366.807007,110.428947 367.472717,104.055962 366.875580,97.792953 
	C366.344208,92.219757 369.384827,89.851357 373.626892,88.330650 
	C375.880219,87.522881 378.484406,87.693939 381.695618,87.608482 
M328.833984,90.103081 
	C328.829712,95.919724 328.776245,101.736832 328.831818,107.552902 
	C328.934662,118.316368 334.881012,123.130638 345.291260,120.899544 
	C347.676758,120.388290 349.724243,119.694069 349.093292,116.347687 
	C348.553528,113.484962 347.792938,111.628380 344.321503,112.368011 
	C341.434998,112.983002 338.474701,112.354614 338.293671,108.963295 
	C337.927063,102.095833 338.184265,95.195068 338.184265,87.928398 
	C341.700684,87.928398 344.628967,87.928398 347.713135,87.928398 
	C347.713135,85.004684 347.713135,82.490120 347.713135,79.716759 
	C344.382446,79.528145 341.444519,79.361778 337.879028,79.159874 
	C337.879028,74.995377 337.879028,70.962280 337.879028,66.929192 
	C337.439819,66.773300 337.000580,66.617416 336.561371,66.461525 
	C335.837769,67.497299 335.107391,68.528442 334.391754,69.569687 
	C331.960480,73.107094 329.874023,76.952171 327.034790,80.123665 
	C321.322845,86.503952 321.154022,86.352798 328.833984,90.103081 
z"/>
<path fill="#2E5FF5" opacity="1.000000" stroke="none" 
	d="
M219.526184,94.791321 
	C224.027100,108.418175 216.782990,119.551712 202.420166,120.707047 
	C193.660233,121.411690 184.800690,121.027260 175.993881,120.809166 
	C174.905518,120.782219 172.950714,118.771233 172.940475,117.665352 
	C172.754227,97.542564 172.835587,77.417480 172.768021,57.293201 
	C172.758804,54.546810 174.039948,53.934547 176.450912,53.966217 
	C183.102478,54.053574 189.760056,54.142666 196.407715,53.958904 
	C205.464142,53.708549 212.312988,57.172497 216.113251,65.533707 
	C219.671066,73.361488 216.672195,79.688896 211.050110,84.684036 
	C213.913818,88.060440 216.622437,91.254005 219.526184,94.791321 
M204.665909,92.414696 
	C197.312073,91.890816 189.958237,91.366943 182.446030,90.831787 
	C182.446030,98.421310 182.446030,104.951096 182.446030,111.309311 
	C189.223953,111.309311 195.656982,111.569130 202.057343,111.223740 
	C206.827789,110.966309 210.144409,108.128357 211.018402,103.319565 
	C211.894897,98.497040 209.741394,94.967209 204.665909,92.414696 
M206.296082,77.638626 
	C209.376312,69.847054 206.420868,64.179039 198.286606,63.321678 
	C193.077560,62.772636 187.763626,63.218765 182.471191,63.218765 
	C182.471191,69.878860 182.471191,76.078590 182.471191,82.336319 
	C187.995270,82.336319 193.183563,82.778809 198.240799,82.156380 
	C200.914291,81.827324 203.359573,79.644272 206.296082,77.638626 
z"/>
<path fill="#2461E9" opacity="1.000000" stroke="none" 
	d="
M126.814804,116.166458 
	C116.731651,110.284454 113.609543,101.758293 115.128281,90.804474 
	C115.779640,86.106583 115.237259,81.243164 115.237259,76.203957 
	C111.364639,76.203957 107.966026,76.203957 104.078506,76.203957 
	C104.078506,80.534790 104.208916,84.664177 104.002960,88.776711 
	C103.936935,90.095108 103.287575,92.055084 102.348824,92.473511 
	C101.377289,92.906563 99.434662,92.180412 98.427612,91.345306 
	C92.795738,86.675125 87.318542,81.818405 81.575188,76.840523 
	C66.238289,90.170860 51.049141,103.370987 35.862247,116.573708 
	C30.583176,121.163071 25.412638,125.887741 19.951956,130.249435 
	C18.775608,131.189041 16.561722,130.829712 14.825760,131.068726 
	C15.297375,129.409805 15.231638,127.140244 16.320156,126.182343 
	C36.950191,108.027878 57.733582,90.047821 78.431145,71.969742 
	C80.814590,69.887947 82.717003,70.142464 84.934784,72.135307 
	C88.997139,75.785629 93.184776,79.296532 98.373024,83.774223 
	C98.373024,80.177635 98.470459,77.646980 98.349915,75.126755 
	C98.174644,71.462418 99.918533,70.004333 103.459267,70.089043 
	C107.621292,70.188614 111.790764,70.212440 115.951073,70.081215 
	C119.868965,69.957634 121.176544,71.733765 121.083420,75.550140 
	C120.884361,83.707573 120.849312,91.879555 121.146782,100.030998 
	C121.219528,102.024300 122.351158,104.487869 123.820923,105.835457 
	C131.183945,112.586342 138.904953,118.946396 146.282303,125.682396 
	C147.564178,126.852821 148.917618,129.959808 148.315720,130.807556 
	C146.366791,133.552567 144.302170,131.357498 142.545212,129.838196 
	C137.379959,125.371620 132.236435,120.879944 126.814804,116.166458 
z"/>
<path fill="#3262F5" opacity="1.000000" stroke="none" 
	d="
M247.860184,120.953873 
	C244.798904,121.007339 242.114136,121.255302 239.490799,120.959045 
	C234.374191,120.381218 230.779770,117.563972 229.562805,112.495872 
	C228.354553,107.464020 229.954910,102.805260 234.450409,100.450096 
	C239.222000,97.950294 244.612885,96.607948 249.779068,94.898376 
	C251.801422,94.229141 253.948120,93.935730 256.001404,93.479332 
	C255.877975,88.506805 253.858078,86.504829 248.862686,87.208252 
	C244.135498,87.873924 239.507553,89.244514 234.609116,90.356575 
	C230.053940,85.450134 230.269669,83.196846 236.715698,81.540451 
	C242.087906,80.159988 247.835449,79.269012 253.333267,79.590263 
	C260.480072,80.007858 264.755981,84.356491 265.179535,91.488480 
	C265.747223,101.046432 265.320129,110.663460 265.320129,121.532967 
	C262.363403,120.554207 259.484467,119.601196 256.605530,118.648186 
	C256.730713,118.281418 256.855896,117.914658 256.981079,117.547890 
	C254.075531,118.666061 251.169998,119.784233 247.860184,120.953873 
M250.388474,102.622940 
	C247.146988,103.847183 243.768539,104.815048 240.737946,106.434036 
	C239.670181,107.004448 238.885666,109.228546 239.029022,110.585930 
	C239.143082,111.665855 240.980362,113.511284 241.854965,113.404091 
	C246.334961,112.855034 251.111389,112.500336 255.010651,110.539467 
	C256.555817,109.762428 256.103088,105.012482 256.640961,101.550171 
	C254.127182,101.916695 252.664490,102.129967 250.388474,102.622940 
z"/>
<path fill="#3061F5" opacity="1.000000" stroke="none" 
	d="
M442.937653,118.676712 
	C439.451904,122.268539 436.832489,121.760864 434.603729,118.633614 
	C428.054321,119.500359 422.287811,120.762329 416.498016,120.880371 
	C411.368530,120.984955 407.820892,117.694756 406.292053,112.763321 
	C404.894043,108.253929 406.788605,102.437271 411.413666,100.316811 
	C418.131653,97.236839 425.348297,95.244537 432.646576,92.685181 
	C432.929443,88.790710 430.851685,86.539703 425.833923,87.193970 
	C420.951477,87.830589 416.173157,89.265877 411.225372,90.378304 
	C406.846863,84.831863 407.040100,83.153831 413.711853,81.440277 
	C418.937195,80.098213 424.542572,79.164963 429.871582,79.547607 
	C437.948822,80.127556 442.009949,85.616676 442.163177,93.795479 
	C442.315887,101.945213 442.665588,110.091263 442.937653,118.676712 
M427.333771,113.051369 
	C433.875031,110.356537 434.356689,109.258713 432.179688,101.535645 
	C429.453247,102.130234 426.589111,102.414520 423.993134,103.403122 
	C420.368011,104.783661 414.371460,105.215172 415.807190,110.662186 
	C417.193176,115.920532 422.493103,113.989235 427.333771,113.051369 
z"/>
<path fill="#3161F5" opacity="1.000000" stroke="none" 
	d="
M305.117279,105.221489 
	C298.240234,117.569427 291.881317,129.804291 284.631653,141.486359 
	C280.476288,148.182327 278.975983,147.721161 274.325562,141.016739 
	C278.957703,133.888779 283.492676,126.781601 288.169525,119.769043 
	C290.439178,116.365891 290.388519,113.414017 288.326569,109.719185 
	C282.994293,100.164192 278.166534,90.327629 273.123840,80.577393 
	C279.924011,77.942390 282.304871,78.788849 285.194672,84.650299 
	C288.491669,91.337723 291.795319,98.021873 295.412476,105.348297 
	C298.794586,98.181534 301.893799,91.644951 304.965881,85.095627 
	C307.957855,78.716995 309.102753,78.222183 317.173401,80.373520 
	C313.170044,88.609016 309.216064,96.742874 305.117279,105.221489 
z"/>
<path fill="#3061F5" opacity="1.000000" stroke="none" 
	d="
M381.312927,87.515823 
	C378.484406,87.693939 375.880219,87.522881 373.626892,88.330650 
	C369.384827,89.851357 366.344208,92.219757 366.875580,97.792953 
	C367.472717,104.055962 366.807007,110.428947 367.089081,116.736275 
	C367.261078,120.580826 365.446747,121.037605 362.285919,121.051720 
	C359.183014,121.065559 357.804047,120.330063 357.863525,116.883392 
	C358.050171,106.076180 357.851196,95.262459 358.018402,84.454613 
	C358.044006,82.801575 359.263275,79.753639 359.850037,79.773125 
	C362.104675,79.847984 364.349609,80.845924 366.541412,81.653526 
	C366.984283,81.816711 367.179901,82.650803 367.602570,83.367203 
	C373.424500,79.309265 379.517242,77.877541 386.220734,79.909546 
	C392.569672,81.834068 396.920593,86.106468 397.392639,92.554497 
	C398.067169,101.768776 397.564362,111.069260 397.564362,120.318085 
	C389.800262,121.911835 388.432312,120.897736 388.421387,113.577415 
	C388.412689,107.756424 388.451263,101.935173 388.406921,96.114510 
	C388.372345,91.577240 386.427307,88.475220 381.312927,87.515823 
z"/>
<path fill="#2E60F5" opacity="1.000000" stroke="none" 
	d="
M328.759949,89.671219 
	C321.154022,86.352798 321.322845,86.503952 327.034790,80.123665 
	C329.874023,76.952171 331.960480,73.107094 334.391754,69.569687 
	C335.107391,68.528442 335.837769,67.497299 336.561371,66.461525 
	C337.000580,66.617416 337.439819,66.773300 337.879028,66.929192 
	C337.879028,70.962280 337.879028,74.995377 337.879028,79.159874 
	C341.444519,79.361778 344.382446,79.528145 347.713135,79.716759 
	C347.713135,82.490120 347.713135,85.004684 347.713135,87.928398 
	C344.628967,87.928398 341.700684,87.928398 338.184265,87.928398 
	C338.184265,95.195068 337.927063,102.095833 338.293671,108.963295 
	C338.474701,112.354614 341.434998,112.983002 344.321503,112.368011 
	C347.792938,111.628380 348.553528,113.484962 349.093292,116.347687 
	C349.724243,119.694069 347.676758,120.388290 345.291260,120.899544 
	C334.881012,123.130638 328.934662,118.316368 328.831818,107.552902 
	C328.776245,101.736832 328.829712,95.919724 328.759949,89.671219 
z"/>
<path fill="#F8FAFF" opacity="1.000000" stroke="none" 
	d="
M205.013870,92.607452 
	C209.741394,94.967209 211.894897,98.497040 211.018402,103.319565 
	C210.144409,108.128357 206.827789,110.966309 202.057343,111.223740 
	C195.656982,111.569130 189.223953,111.309311 182.446030,111.309311 
	C182.446030,104.951096 182.446030,98.421310 182.446030,90.831787 
	C189.958237,91.366943 197.312073,91.890816 205.013870,92.607452 
z"/>
<path fill="#F8FAFF" opacity="1.000000" stroke="none" 
	d="
M206.101990,77.968437 
	C203.359573,79.644272 200.914291,81.827324 198.240799,82.156380 
	C193.183563,82.778809 187.995270,82.336319 182.471191,82.336319 
	C182.471191,76.078590 182.471191,69.878860 182.471191,63.218765 
	C187.763626,63.218765 193.077560,62.772636 198.286606,63.321678 
	C206.420868,64.179039 209.376312,69.847054 206.101990,77.968437 
z"/>
<path fill="#F9FBFF" opacity="1.000000" stroke="none" 
	d="
M250.795135,102.483093 
	C252.664490,102.129967 254.127182,101.916695 256.640961,101.550171 
	C256.103088,105.012482 256.555817,109.762428 255.010651,110.539467 
	C251.111389,112.500336 246.334961,112.855034 241.854965,113.404091 
	C240.980362,113.511284 239.143082,111.665855 239.029022,110.585930 
	C238.885666,109.228546 239.670181,107.004448 240.737946,106.434036 
	C243.768539,104.815048 247.146988,103.847183 250.795135,102.483093 
z"/>
<path fill="#F8F9FF" opacity="1.000000" stroke="none" 
	d="
M426.928711,113.129051 
	C422.493103,113.989235 417.193176,115.920532 415.807190,110.662186 
	C414.371460,105.215172 420.368011,104.783661 423.993134,103.403122 
	C426.589111,102.414520 429.453247,102.130234 432.179688,101.535645 
	C434.356689,109.258713 433.875031,110.356537 426.928711,113.129051 
z"/>
</svg>